<svg xmlns="http://www.w3.org/2000/svg" width="41" height="38" viewBox="0 0 41 38"><defs><style>.a{fill:none;stroke:#f4b248;stroke-miterlimit:10;}.b{fill:#f4b248;}.c{fill:#fff;}</style></defs><g transform="translate(-1803.5 -148.5)"><g transform="translate(1804.137 148.725)"><rect class="a" width="40" height="37" rx="8" transform="translate(-0.137 0.275)"/></g><path class="b" d="M21.7,66.994H12.723L9.729,64H2.245A2.245,2.245,0,0,0,0,66.245V79.717a2.245,2.245,0,0,0,2.245,2.245H21.7a2.245,2.245,0,0,0,2.245-2.245V69.239A2.245,2.245,0,0,0,21.7,66.994Z" transform="translate(1812.337 94.396)"/><g transform="translate(1820.538 165.126)"><rect class="c" width="8" height="2" rx="1" transform="translate(0.462 2.874)"/><rect class="c" width="8" height="2" rx="1" transform="translate(5.462 -0.126) rotate(90)"/></g></g></svg>