<svg xmlns="http://www.w3.org/2000/svg" width="24.615" height="20" viewBox="0 0 24.615 20"><defs><style>.a{fill:#707070;}</style></defs><path class="a" d="M3.846,63.385H.769A.769.769,0,0,0,0,64.154v3.077A.769.769,0,0,0,.769,68H3.846a.769.769,0,0,0,.769-.769V64.154A.769.769,0,0,0,3.846,63.385ZM3.846,48H.769A.769.769,0,0,0,0,48.769v3.077a.769.769,0,0,0,.769.769H3.846a.769.769,0,0,0,.769-.769V48.769A.769.769,0,0,0,3.846,48Zm0,7.692H.769A.769.769,0,0,0,0,56.462v3.077a.769.769,0,0,0,.769.769H3.846a.769.769,0,0,0,.769-.769V56.462A.769.769,0,0,0,3.846,55.692Zm20,8.462H8.462a.769.769,0,0,0-.769.769v1.538a.769.769,0,0,0,.769.769H23.846a.769.769,0,0,0,.769-.769V64.923A.769.769,0,0,0,23.846,64.154Zm0-15.385H8.462a.769.769,0,0,0-.769.769v1.538a.769.769,0,0,0,.769.769H23.846a.769.769,0,0,0,.769-.769V49.538A.769.769,0,0,0,23.846,48.769Zm0,7.692H8.462a.769.769,0,0,0-.769.769v1.538a.769.769,0,0,0,.769.769H23.846a.769.769,0,0,0,.769-.769V57.231A.769.769,0,0,0,23.846,56.462Z" transform="translate(0 -48)"/></svg>