<svg xmlns="http://www.w3.org/2000/svg" width="20.371" height="18.192" viewBox="0 0 20.371 18.192"><defs><style>.a{fill:#f4b248;}</style></defs><path class="a" d="M9.686,14.088,7.162,16.341a4.567,4.567,0,0,0,0,6.972,6,6,0,0,0,7.807,0l3.364-3.005A4.606,4.606,0,0,0,19.87,15.99a5.037,5.037,0,0,0-3.061-3.615l-1.079.963a1.683,1.683,0,0,0-.283.327A3.491,3.491,0,0,1,17.994,16a3.054,3.054,0,0,1-.962,3.146l-3.362,3a4,4,0,0,1-5.207,0,3.046,3.046,0,0,1,0-4.65l1.459-1.3a5.927,5.927,0,0,1-.236-2.115Z" transform="translate(-5.545 -6.566)"/><path class="a" d="M12.85,14.6l.307-.275a3.785,3.785,0,0,1,1.649-.851A3.209,3.209,0,0,1,15.759,12l.307-.275a6.1,6.1,0,0,0-2.686.472,4.472,4.472,0,0,0-.53,2.4Z" transform="translate(-6.874 -6.388)"/><path class="a" d="M14.459,8.869a4.606,4.606,0,0,0-1.537,4.319,5.037,5.037,0,0,0,3.06,3.615l1.426-1.275a3.505,3.505,0,0,1-2.6-2.324,3.052,3.052,0,0,1,.953-3.174l3.362-3a4,4,0,0,1,5.207,0,3.046,3.046,0,0,1,0,4.65l-1.459,1.3a5.932,5.932,0,0,1,.236,2.115l2.525-2.255a4.567,4.567,0,0,0,0-6.972,6,6,0,0,0-7.807,0Z" transform="translate(-6.874 -4.421)"/><path class="a" d="M21.9,20.489a4.467,4.467,0,0,0,.53-2.4l-.307.275a3.785,3.785,0,0,1-1.649.851,3.209,3.209,0,0,1-.953,1.472l-.307.275a6.1,6.1,0,0,0,2.686-.472Z" transform="translate(-8.036 -8.107)"/></svg>