<svg xmlns="http://www.w3.org/2000/svg" width="6.667" height="7.778" viewBox="0 0 6.667 7.778"><defs><style>.a{fill:#ff6b16;}</style></defs><g transform="translate(-14.667 -53.389)"><path class="a" d="M6.372,1.649a1.008,1.008,0,0,1,.208.33,1.007,1.007,0,0,1,.087.382v5a.415.415,0,0,1-.417.417H.417a.4.4,0,0,1-.3-.122A.4.4,0,0,1,0,7.361V.417a.4.4,0,0,1,.122-.3A.4.4,0,0,1,.417,0H4.306a1,1,0,0,1,.382.087A1.013,1.013,0,0,1,5.018.3ZM4.444.59V2.222H6.076a.474.474,0,0,0-.1-.178L4.622.686a.474.474,0,0,0-.178-.1ZM6.111,7.222V2.778H4.306a.415.415,0,0,1-.417-.417V.555H.555V7.222H6.111ZM3.88,4.648a3.313,3.313,0,0,0,.365.243,4.294,4.294,0,0,1,.508-.03q.638,0,.768.213a.21.21,0,0,1,.009.226.012.012,0,0,1,0,.009l-.009.009v0q-.026.165-.308.165a1.79,1.79,0,0,1-.5-.087,3.169,3.169,0,0,1-.564-.23,7.816,7.816,0,0,0-1.7.36q-.664,1.137-1.05,1.137a.253.253,0,0,1-.122-.03l-.1-.052-.026-.022a.179.179,0,0,1-.026-.156.942.942,0,0,1,.243-.4,2.1,2.1,0,0,1,.573-.419.063.063,0,0,1,.1.026.025.025,0,0,1,.009.017q.226-.369.465-.855a6.621,6.621,0,0,0,.451-1.137,3.513,3.513,0,0,1-.132-.692A1.669,1.669,0,0,1,2.852,2.4q.048-.174.182-.174h.1a.183.183,0,0,1,.152.065.346.346,0,0,1,.039.3.094.094,0,0,1-.017.035.113.113,0,0,1,0,.035v.13a5.682,5.682,0,0,1-.061.833A2.2,2.2,0,0,0,3.88,4.648ZM1.38,6.432a1.915,1.915,0,0,0,.595-.686,2.473,2.473,0,0,0-.38.365,1.441,1.441,0,0,0-.215.321ZM3.108,2.439a1.292,1.292,0,0,0-.009.573q0-.03.03-.191,0-.013.03-.187A.1.1,0,0,1,3.177,2.6a.012.012,0,0,1,0-.009.033.033,0,0,1,0-.013.25.25,0,0,0-.056-.156.012.012,0,0,1,0,.009v.009ZM2.569,5.308A6.36,6.36,0,0,1,3.8,4.957a.656.656,0,0,1-.056-.041.78.78,0,0,1-.069-.059,2.3,2.3,0,0,1-.551-.764,5.79,5.79,0,0,1-.36.855q-.13.243-.2.36Zm2.8-.069a1.039,1.039,0,0,0-.608-.1,1.641,1.641,0,0,0,.538.122.425.425,0,0,0,.078,0s0-.007-.009-.013Z" transform="translate(14.667 53.389)"/></g></svg>