<svg xmlns="http://www.w3.org/2000/svg" xmlns:xlink="http://www.w3.org/1999/xlink" width="646" height="394" viewBox="0 0 646 394"><defs><style>.a{fill:#fff;}.b,.d{fill:#3a405e;}.b{font-size:20px;font-family:Roboto-Regular, Roboto;}.c,.f{fill:#f4b248;}.d{font-size:50px;font-family:Roboto-Bold, Roboto;font-weight:700;}.e{fill:none;fill-rule:evenodd;}.f{opacity:0.5;}.g{filter:url(#a);}</style><filter id="a" x="0" y="0" width="646" height="394" filterUnits="userSpaceOnUse"><feOffset dy="3" input="SourceAlpha"/><feGaussianBlur stdDeviation="3" result="b"/><feFlood flood-opacity="0.161"/><feComposite operator="in" in2="b"/><feComposite in="SourceGraphic"/></filter></defs><g transform="translate(-637 -346)"><g class="g" transform="matrix(1, 0, 0, 1, 637, 346)"><path class="a" d="M8,0H620a8,8,0,0,1,8,8V368a8,8,0,0,1-8,8H8a8,8,0,0,1-8-8V8A8,8,0,0,1,8,0Z" transform="translate(9 6)"/></g><text class="b" transform="translate(771 646)"><tspan x="0" y="0">Must apply google with auth google button</tspan></text><path class="c" d="M11.523,0H616.477C622.841,0,628,3.582,628,8V9H0V8C0,3.582,5.159,0,11.523,0Z" transform="translate(646 352)"/><text class="d" transform="translate(859 605)"><tspan x="0" y="0">Success!</tspan></text><g transform="translate(901 431.502)"><path class="e" d="M0,0H117.91V117.91H0Z"/><path class="f" d="M8.656,57.224A4.913,4.913,0,1,1,1.17,50.86L42.929,1.731a4.913,4.913,0,0,1,7.007-.49L72.045,20.893a4.913,4.913,0,1,1-6.528,7.344L47.163,11.922Z" transform="translate(110.54 83.519) rotate(180)"/><path class="c" d="M8.656,57.224A4.913,4.913,0,1,1,1.17,50.86L42.929,1.731a4.913,4.913,0,0,1,7.007-.49L72.045,20.893a4.913,4.913,0,0,1-6.528,7.344L47.163,11.922Z" transform="translate(85.976 88.432) rotate(180)"/></g></g></svg>