<svg xmlns="http://www.w3.org/2000/svg" xmlns:xlink="http://www.w3.org/1999/xlink" width="217.746" height="185.487" viewBox="0 0 217.746 185.487"><defs><style>.a{fill:#c5c7d0;}.b{opacity:0.558;}.c{clip-path:url(#a);}</style><clipPath id="a"><rect class="a" width="217.746" height="185.487"/></clipPath></defs><g class="b"><g transform="translate(0 0)"><g transform="translate(0)"><g class="c"><path class="a" d="M918.192,438.059A56.968,56.968,0,0,0,807.678,438a57.038,57.038,0,0,0,5.348,113.827h21.389a7.13,7.13,0,1,0,0-14.259H813.026A42.78,42.78,0,1,1,812.775,452a7.4,7.4,0,0,0,7.845-6.087,42.715,42.715,0,0,1,84.575,0A7.7,7.7,0,0,0,912.842,452a42.779,42.779,0,1,1,0,85.559H891.456a7.13,7.13,0,1,0,0,14.259h21.387a57.039,57.039,0,0,0,5.35-113.764Zm0,0" transform="translate(-752.657 -390.928)"/></g><path class="a" d="M937.447,538.822a7.13,7.13,0,0,0,10.082-10.081L911.88,493.09a7.131,7.131,0,0,0-10.082,0L866.15,528.741a7.129,7.129,0,0,0,10.079,10.081l23.481-23.478v89.734a7.13,7.13,0,1,0,14.26,0V515.344Zm0,0" transform="translate(-796.563 -429.924)"/></g></g></g></svg>