<svg xmlns="http://www.w3.org/2000/svg" width="18.286" height="16" viewBox="0 0 18.286 16"><defs><style>.a{fill:#4ba2ef;}</style></defs><path class="a" d="M9.143,32A9.138,9.138,0,0,0,0,41.143v1.714a1.143,1.143,0,0,0,.632,1.022l.514.257a4,4,0,0,0,4,3.864H6a.857.857,0,0,0,.857-.857V40.857A.857.857,0,0,0,6,40H5.143a3.988,3.988,0,0,0-2.857,1.2v-.058a6.857,6.857,0,1,1,13.714,0V41.2A3.988,3.988,0,0,0,13.143,40h-.857a.857.857,0,0,0-.857.857v6.286a.857.857,0,0,0,.857.857h.857a4,4,0,0,0,4-3.864l.514-.257a1.143,1.143,0,0,0,.632-1.022V41.143A9.138,9.138,0,0,0,9.143,32Z" transform="translate(0 -32)"/></svg>