<svg xmlns="http://www.w3.org/2000/svg" width="132.617" height="116.041" viewBox="0 0 132.617 116.041"><defs><style>.a{fill:#7033ff;}</style></defs><path class="a" d="M66.309,32A66.273,66.273,0,0,0,0,98.309v12.433a8.289,8.289,0,0,0,4.582,7.414l3.725,1.863A29.009,29.009,0,0,0,37.3,148.041h6.216a6.216,6.216,0,0,0,6.216-6.217V96.237a6.216,6.216,0,0,0-6.216-6.216H37.3a28.921,28.921,0,0,0-20.721,8.71v-.421a49.731,49.731,0,1,1,99.463,0v.421a28.921,28.921,0,0,0-20.721-8.71H89.1a6.216,6.216,0,0,0-6.216,6.216v45.587a6.216,6.216,0,0,0,6.216,6.217h6.216a29.009,29.009,0,0,0,28.991-28.022l3.725-1.863a8.289,8.289,0,0,0,4.582-7.414V98.309A66.273,66.273,0,0,0,66.309,32Z" transform="translate(0 -32)"/></svg>