<svg xmlns="http://www.w3.org/2000/svg" width="12.518" height="14.306" viewBox="0 0 12.518 14.306"><defs><style>.a{fill:#9393b2;opacity:0.85;}</style></defs><path class="a" d="M8.941,12.518v1.118a.671.671,0,0,1-.671.671H.671A.671.671,0,0,1,0,13.635V3.353a.671.671,0,0,1,.671-.671H2.682v8.271a1.566,1.566,0,0,0,1.565,1.565Zm0-9.612V0H4.247a.671.671,0,0,0-.671.671V10.953a.671.671,0,0,0,.671.671h7.6a.671.671,0,0,0,.671-.671V3.576H9.612A.673.673,0,0,1,8.941,2.906Zm3.38-.867L10.479.2A.671.671,0,0,0,10,0H9.835V2.682h2.682V2.513a.671.671,0,0,0-.2-.474Z"/></svg>