<svg xmlns="http://www.w3.org/2000/svg" width="12.518" height="14.306" viewBox="0 0 12.518 14.306"><defs><style>.a{fill:#9393b2;opacity:0.85;}</style></defs><path class="a" d="M12.071.894H8.718L8.455.371A.671.671,0,0,0,7.854,0H4.661a.663.663,0,0,0-.6.372L3.8.894H.447A.447.447,0,0,0,0,1.341v.894a.447.447,0,0,0,.447.447H12.071a.447.447,0,0,0,.447-.447V1.341A.447.447,0,0,0,12.071.894ZM1.486,13.048a1.341,1.341,0,0,0,1.338,1.257H9.693a1.341,1.341,0,0,0,1.338-1.257l.592-9.472H.894Z" transform="translate(0 0)"/></svg>