<svg xmlns="http://www.w3.org/2000/svg" width="14.306" height="14.306" viewBox="0 0 14.306 14.306"><defs><style>.a{fill:#9393b2;opacity:0.85;}</style></defs><path class="a" d="M6.035,0H8.271a.669.669,0,0,1,.671.671V5.365h2.45a.558.558,0,0,1,.394.953L7.536,10.57a.541.541,0,0,1-.763,0L2.518,6.318a.558.558,0,0,1,.394-.953H5.365V.671A.669.669,0,0,1,6.035,0Zm8.271,10.506v3.129a.669.669,0,0,1-.671.671H.671A.669.669,0,0,1,0,13.635V10.506a.669.669,0,0,1,.671-.671h4.1L6.139,11.2a1.432,1.432,0,0,0,2.029,0L9.536,9.835h4.1A.669.669,0,0,1,14.306,10.506Zm-3.465,2.459a.559.559,0,1,0-.559.559A.56.56,0,0,0,10.841,12.965Zm1.788,0a.559.559,0,1,0-.559.559A.56.56,0,0,0,12.629,12.965Z"/></svg>