<svg xmlns="http://www.w3.org/2000/svg" width="15.861" height="15.656" viewBox="0 0 15.861 15.656"><defs><style>.a{opacity:0.797;}.b{fill:#9090a0;stroke:#9090a0;stroke-width:0.5px;}</style></defs><g class="a" transform="translate(0.25 0.25)"><path class="b" d="M13.984,47.123a.376.376,0,0,0-.377.375v3.333a1.13,1.13,0,0,1-1.132,1.126H1.887A1.13,1.13,0,0,1,.755,50.832V41.049a1.13,1.13,0,0,1,1.132-1.126H5.237a.375.375,0,1,0,0-.751H1.887A1.884,1.884,0,0,0,0,41.049v9.783a1.884,1.884,0,0,0,1.887,1.877H12.475a1.884,1.884,0,0,0,1.887-1.877V47.5a.376.376,0,0,0-.377-.375Zm0,0" transform="translate(0 -37.553)"/><path class="b" d="M119.359.809a1.872,1.872,0,0,0-2.648,0l-7.423,7.423a.416.416,0,0,0-.107.183l-.976,3.524a.416.416,0,0,0,.512.512l3.524-.976a.416.416,0,0,0,.183-.107l7.423-7.423a1.874,1.874,0,0,0,0-2.648ZM110.195,8.5l6.075-6.075,1.959,1.959-6.075,6.075Zm-.391.785,1.565,1.566-2.165.6Zm9.456-5.931-.441.441-1.959-1.959L117.3,1.4a1.04,1.04,0,0,1,1.471,0l.488.488A1.042,1.042,0,0,1,119.259,3.357Zm0,0" transform="translate(-105.162 -0.261)"/></g></svg>