<svg xmlns="http://www.w3.org/2000/svg" width="22.857" height="20" viewBox="0 0 22.857 20"><defs><style>.a{fill:#e3e3eb;}</style></defs><path class="a" d="M13.214,32h8.571a1.071,1.071,0,0,1,1.071,1.071v7.143a1.071,1.071,0,0,1-1.071,1.071H13.214a1.071,1.071,0,0,1-1.071-1.071V33.071A1.071,1.071,0,0,1,13.214,32ZM9.643,32H1.071A1.071,1.071,0,0,0,0,33.071v7.143a1.071,1.071,0,0,0,1.071,1.071H9.643a1.071,1.071,0,0,0,1.071-1.071V33.071A1.071,1.071,0,0,0,9.643,32ZM0,43.786v7.143A1.071,1.071,0,0,0,1.071,52H9.643a1.071,1.071,0,0,0,1.071-1.071V43.786a1.071,1.071,0,0,0-1.071-1.071H1.071A1.071,1.071,0,0,0,0,43.786ZM13.214,52h8.571a1.071,1.071,0,0,0,1.071-1.071V43.786a1.071,1.071,0,0,0-1.071-1.071H13.214a1.071,1.071,0,0,0-1.071,1.071v7.143A1.071,1.071,0,0,0,13.214,52Z" transform="translate(0 -32)"/></svg>