<svg xmlns="http://www.w3.org/2000/svg" width="17.732" height="13.299" viewBox="0 0 17.732 13.299"><defs><style>.a{fill:#2a3c98;}</style></defs><path class="a" d="M16.07,64H1.662A1.662,1.662,0,0,0,0,65.662v9.974A1.662,1.662,0,0,0,1.662,77.3H16.07a1.662,1.662,0,0,0,1.662-1.662V65.662A1.662,1.662,0,0,0,16.07,64Zm-.208,11.637H1.87a.208.208,0,0,1-.208-.208V65.87a.208.208,0,0,1,.208-.208H15.862a.208.208,0,0,1,.208.208v9.559A.208.208,0,0,1,15.862,75.637ZM4.433,67.048a1.385,1.385,0,1,0,1.385,1.385A1.385,1.385,0,0,0,4.433,67.048ZM3.325,73.974H14.408V71.2l-3.031-3.031a.416.416,0,0,0-.588,0L6.65,72.312,5.281,70.944a.416.416,0,0,0-.588,0L3.325,72.312Z" transform="translate(0 -64)"/></svg>