<svg xmlns="http://www.w3.org/2000/svg" width="6.667" height="5.833" viewBox="0 0 6.667 5.833"><defs><style>.a,.b{fill:#ff0303;}.a{fill-rule:evenodd;}</style></defs><g transform="translate(-14.667 -35.294)"><g transform="translate(14.662 33.044)"><path class="a" d="M5.838,2.667h-5a.417.417,0,0,0-.417.417V7.25a.417.417,0,0,0,.417.417h5a.417.417,0,0,0,.417-.417V3.083a.417.417,0,0,0-.417-.417Zm-5-.417A.833.833,0,0,0,0,3.083V7.25a.833.833,0,0,0,.833.833h5a.833.833,0,0,0,.833-.833V3.083a.833.833,0,0,0-.833-.833h-5Z"/><path class="b" d="M6.274,16.936a.208.208,0,0,1,.24-.039l1.574.811v1.875H2.255V18.75l1.1-.981a.208.208,0,0,1,.262-.026l1.108.739,1.546-1.546Z" transform="translate(-1.833 -11.917)"/><path class="a" d="M7.38,10.25a.625.625,0,1,0-.625-.625A.625.625,0,0,0,7.38,10.25Z" transform="translate(-5.5 -5.5)"/></g></g></svg>