<svg xmlns="http://www.w3.org/2000/svg" width="130.839" height="59.941" viewBox="0 0 130.839 59.941"><defs><style>.a{fill:#29b4fd;opacity:0.206;}</style></defs><path class="a" d="M462.887,1563.6c-1.269-3.179-2.184-5.961-2.389-12.216,0-.163,0-.326,0-.488-.08-6.176-.347-12.933-2.963-18.606a29.589,29.589,0,0,0-12.322-13.455q-.731-.406-1.485-.767a27.824,27.824,0,0,0-3.622-1.431,29.478,29.478,0,0,0-23.041,2.608c-8.418,4.656-12.522,13.738-17.578,21.54-5.265,8.125-12.033,15.721-20.533,20.342a27.794,27.794,0,0,1-2.67,1.327,36.183,36.183,0,0,1-7.891,2.27,32.792,32.792,0,0,1-6.856.194,24.025,24.025,0,0,1-5.312-1.489c-6.116-2.451-10.581-8.731-11.435-15.335a20.406,20.406,0,0,1,3.234-14.057,19.2,19.2,0,0,1,26.5-5.335,12.423,12.423,0,0,1,2.171,1.681,38.243,38.243,0,0,1,3.235,3.719c.285.474.615.476-1.046.476H365.027a5.056,5.056,0,0,0-3.5,1.482,5.206,5.206,0,0,0-1.45,3.581,5.1,5.1,0,0,0,4.953,5.062c2.342,0,4.755,0,7.1,0,1.637,0,3.267-.058,4.9-.036q2.948.042,5.895.038c2.569,0,5.3.127,7.347-1.783,4.152-3.873,1.008-10.164-1.666-13.894a32.785,32.785,0,0,0-13.982-11.239c-.06-.025-.121-.049-.182-.073a28.33,28.33,0,0,0-20.34-.389,29.824,29.824,0,0,0,12.848,57.658c20.086-1.359,34.033-17.056,43.759-33.54,2.8-4.746,5.516-10.5,10.8-13.37a20.868,20.868,0,0,1,16.731-1.3,18.442,18.442,0,0,1,5.193,3c8.181,6.721,9.167,19.714,2.745,28.061a19.29,19.29,0,0,1-20.862,6.605,20.82,20.82,0,0,1-8.128-5.016c-2.229-2.1-4.332-5.659-7.873-4.408-2.162.764-2.935,3.575-2.587,5.684.327,1.98,2.079,3.513,3.395,4.872a30.914,30.914,0,0,0,5.336,4.412,29.108,29.108,0,0,0,12.574,4.553,28.775,28.775,0,0,0,13.454-1.739c3.9-1.487,9.442-4.277,11.414-8.279a31.977,31.977,0,0,0,2.461,6.217c1.544,2.768,2.217,3.79,3.864,4.359,2.195.758,5.905-.461,6.461-3.6S463.967,1566.306,462.887,1563.6ZM380.4,1533.786l-.47-.62C380.115,1533.4,380.285,1533.61,380.4,1533.786Z" transform="translate(-334.933 -1515.368)"/></svg>