<svg xmlns="http://www.w3.org/2000/svg" width="17.426" height="17.425" viewBox="0 0 17.426 17.425"><defs><style>.a{fill:#a3a3bd;stroke:#a3a3bd;stroke-width:0.5px;}</style></defs><g transform="translate(-5.295 -4.171)"><path class="a" d="M8.986,13.968l-2.1,2.1a4.587,4.587,0,0,0,6.487,6.487l2.795-2.8A4.586,4.586,0,0,0,14.9,12.375l-.9.9a1.53,1.53,0,0,0-.235.3,3.058,3.058,0,0,1,1.316,5.1L12.3,21.471a3.059,3.059,0,1,1-4.326-4.326l1.212-1.211a6.142,6.142,0,0,1-.2-1.968Z" transform="translate(0 -2.55)"/><path class="a" d="M12.849,14.4l.255-.255a3.043,3.043,0,0,1,1.37-.792,3.043,3.043,0,0,1,.792-1.37l.255-.255a4.592,4.592,0,0,0-2.232.439,4.578,4.578,0,0,0-.44,2.232Z" transform="translate(-2.339 -2.339)"/><path class="a" d="M14.185,8.559A4.586,4.586,0,0,0,15.45,15.94l1.185-1.186a3.058,3.058,0,0,1-1.37-5.116l2.793-2.795a3.059,3.059,0,1,1,4.326,4.326l-1.212,1.211a6.146,6.146,0,0,1,.2,1.968l2.1-2.1a4.587,4.587,0,0,0-6.487-6.487Z" transform="translate(-2.339)"/><path class="a" d="M21.447,20.322a4.571,4.571,0,0,0,.44-2.232l-.255.255a3.043,3.043,0,0,1-1.37.792,3.043,3.043,0,0,1-.792,1.37l-.255.255a4.592,4.592,0,0,0,2.232-.439Z" transform="translate(-4.382 -4.382)"/></g></svg>