<svg xmlns="http://www.w3.org/2000/svg" width="7.429" height="5.571" viewBox="0 0 7.429 5.571"><defs><style>.a{fill:#4ba2ef;}</style></defs><g transform="translate(-14.952 -111.547)"><path class="a" d="M9.428,7.007a.49.49,0,0,0-.269-.441.464.464,0,0,0-.494.035l-1.093.7V6.464A.464.464,0,0,0,7.107,6H2.929A.929.929,0,0,0,2,6.929v3.714a.929.929,0,0,0,.929.929H7.107a.464.464,0,0,0,.464-.464v-.836l1.077.7a.481.481,0,0,0,.511.046.49.49,0,0,0,.269-.45Zm-.481,3.582a.061.061,0,0,1-.044-.014l-1.8-1.147v1.678H2.929a.464.464,0,0,1-.464-.464V6.929a.464.464,0,0,1,.464-.464H7.107V8.143L8.918,6.982a.031.031,0,0,1,.046.026v3.556a.026.026,0,0,1-.016.026Z" transform="translate(12.952 105.547)"/></g></svg>